<?xml version="1.0" encoding="UTF-8" standalone="no"?>
<!DOCTYPE svg PUBLIC "-//W3C//DTD SVG 1.1//EN" "http://www.w3.org/Graphics/SVG/1.1/DTD/svg11.dtd">
<svg width="100%" height="100%" viewBox="0 0 1500 339" version="1.1" xmlns="http://www.w3.org/2000/svg" xmlns:xlink="http://www.w3.org/1999/xlink" xml:space="preserve" xmlns:serif="http://www.serif.com/" style="fill-rule:evenodd;clip-rule:evenodd;stroke-linejoin:round;stroke-miterlimit:2;">
    <g id="Layer-2" serif:id="Layer 2" transform="matrix(5.55556,0,0,5.55738,0,0)">
        <g transform="matrix(-0.991817,0.127668,0.127668,0.991817,58.8432,49.7676)">
            <path d="M-11.037,-44.317L-2.773,-44.317L2.872,-0.466L-5.257,0.58C-5.257,0.58 -10.829,-44.588 -11.037,-44.317" style="fill:rgb(24,24,24);fill-rule:nonzero;"/>
        </g>
        <g transform="matrix(-0.999996,0.00268423,0.00268423,0.999996,41.1919,49.5093)">
            <path d="M-8.238,-31.336L-0.042,-31.336L0.043,0.162L-8.153,0.184C-8.153,0.184 -7.998,-31.51 -8.238,-31.336" style="fill:rgb(24,24,24);fill-rule:nonzero;"/>
        </g>
        <g transform="matrix(0,-1,-1,0,45.2823,4.1169)">
            <path d="M-5.001,-5.001C-7.605,-5.001 -9.715,-2.762 -9.715,0C-9.715,2.762 -7.605,5.001 -5.001,5.001C-2.397,5.001 -0.287,2.762 -0.287,0C-0.287,-2.762 -2.397,-5.001 -5.001,-5.001" style="fill:rgb(24,24,24);fill-rule:nonzero;"/>
        </g>
        <g transform="matrix(1,0,0,1,100.212,4.1095)">
            <path d="M0,45.562L-13.768,26.758L-1.714,13.741L-10.554,13.741L-21.375,26.262C-21.414,13.829 -21.428,0 -21.295,0.134L-29.491,1.193L-29.491,45.562L-21.295,45.562C-21.295,45.562 -21.336,37.652 -21.368,28.434L-9.482,45.562L0,45.562Z" style="fill:rgb(24,24,24);fill-rule:nonzero;"/>
        </g>
        <g transform="matrix(1,0,0,1,178.963,50.9786)">
            <path d="M0,-32.32L0,-1.15L-7.8,-1.15L-7.8,-4.25C-12.69,-1.35 -18.15,0 -22.25,-1.15C-23.749,-1.564 -25.065,-2.312 -26.105,-3.439C-27.308,-4.741 -27.88,-6.508 -27.88,-8.281L-27.88,-32.32L-20.09,-32.32L-20.09,-12.212C-20.09,-11.476 -19.996,-10.735 -19.777,-10.032C-17.694,-3.359 -11.212,-5.643 -8.668,-8.559C-8.101,-9.21 -7.8,-10.049 -7.8,-10.913L-7.8,-32.32L0,-32.32Z" style="fill:rgb(24,24,24);fill-rule:nonzero;"/>
        </g>
        <g transform="matrix(1,0,0,1,235.694,36.1929)">
            <path d="M0,-13.2L0,-18.343L-7.152,-18.343L-7.152,-27.905L-15.054,-24.504L-15.054,-18.343L-19.687,-18.343L-19.687,-13.2L-15.054,-13.2L-15.054,7.072C-15.054,7.414 -15.037,7.76 -14.972,8.096C-13.71,14.705 -5.125,14.568 0,12.313L0,8.054C-1.59,9.008 -3.18,9.303 -4.769,8.878C-6.212,8.493 -7.152,7.094 -7.152,5.6L-7.152,-13.2L0,-13.2Z" style="fill:rgb(24,24,24);fill-rule:nonzero;"/>
        </g>
        <g transform="matrix(1,0,0,1,199.063,21.4686)">
            <path d="M0,24.67C-4.48,24.67 -8.11,19.31 -8.11,12.69C-8.11,6.08 -4.48,0.72 0,0.72C4.48,0.72 8.12,6.08 8.12,12.69C8.12,19.31 4.48,24.67 0,24.67M0,-4.5C-8.82,-4.5 -15.98,3.03 -15.98,12.33C-15.98,21.63 -8.82,29.17 0,29.17C8.83,29.17 15.98,21.63 15.98,12.33C15.98,3.03 8.83,-4.5 0,-4.5" style="fill:rgb(24,24,24);fill-rule:nonzero;"/>
        </g>
        <g transform="matrix(1,0,0,1,245.453,41.0066)">
            <path d="M0,-13.988C2.24,-19.838 10.75,-20.008 12.99,-14.148C13.32,-13.288 13.53,-12.338 13.65,-11.318L-0.62,-11.318C-0.52,-12.278 -0.31,-13.178 0,-13.988M17.4,0.792C8.88,7.382 -1.16,3.522 -0.6,-7.198L20.88,-7.208C20.88,-16.498 14.22,-24.038 5.99,-24.038C-2.23,-24.038 -8.9,-16.498 -8.9,-7.208C-8.9,-2.539 -7.162,2.15 -3.82,5.459C-0.066,9.178 4.687,10.05 9.788,9.243C13.146,8.711 16.415,7.435 18.69,4.812L18.02,2.722L17.4,0.792Z" style="fill:rgb(24,24,24);fill-rule:nonzero;"/>
        </g>
        <g transform="matrix(1,0,0,1,114.453,22.2586)">
            <path d="M0,19.29C-2.78,15.86 -4.52,10.9 -4.52,5.39C-4.52,-4.95 1.62,-13.33 9.18,-13.33C16.75,-13.33 22.88,-4.95 22.88,5.39C22.88,10.89 21.15,15.84 18.38,19.27C13.09,12.68 3.66,10.42 0,19.29M9.18,24.12C6.05,24.12 3.17,22.68 0.87,20.27C6.19,17.32 9.65,19.33 12.22,23.65C11.24,23.96 10.23,24.12 9.18,24.12M21.89,24.96C27.92,20.62 31.88,13.37 31.88,5.15C31.88,-8.12 21.56,-18.87 8.82,-18.87C-3.92,-18.87 -14.24,-8.12 -14.24,5.15C-14.24,18.42 -3.92,29.18 8.82,29.18C10.82,29.18 12.76,28.91 14.62,28.41C15.18,29.38 15.84,30.29 16.6,31.11C23.15,38.16 32.49,35.14 35.1,31.27C29.62,33.07 25.39,30.3 21.89,24.96" style="fill:rgb(24,24,24);fill-rule:nonzero;"/>
        </g>
        <g transform="matrix(1,0,0,1,3.8369,7.9777)">
            <path d="M0,37.408C0,37.408 0.482,30.606 0.482,30.604C0.451,31.042 2.329,32.421 2.676,32.721C3.453,33.392 4.269,34.018 5.126,34.583C6.817,35.697 8.667,36.569 10.624,37.099C14.366,38.112 19.209,37.623 21.924,34.554C24.289,31.881 23.782,28.015 20.839,25.997C17.511,23.715 13.419,22.607 9.651,21.39C6.106,20.246 2.939,17.922 1.168,14.584C-0.621,11.214 -0.571,7.134 1.054,3.682C5.361,-5.469 19.272,-6.36 26.902,-1.263C27.126,-1.113 28.573,-0.262 28.554,-0.012C28.554,-0.012 27.991,7.138 27.991,7.14C28.045,6.448 24.908,4.485 24.339,4.104C23.036,3.231 21.633,2.505 20.149,1.995C17.321,1.022 13.749,0.517 11.105,2.227C7.325,4.67 7.184,10.026 10.839,12.672C12.353,13.767 14.222,14.598 16.018,15.136C17.729,15.648 19.438,15.897 21.14,16.454C22.938,17.043 24.65,17.867 26.283,18.824C28.938,20.38 30.98,22.851 31.713,25.841C32.474,28.943 31.997,32.068 30.293,35.216C29.096,37.426 27.274,39.275 25.013,40.372C18.009,43.768 7.537,43.291 0,37.408" style="fill:rgb(24,24,24);fill-rule:nonzero;"/>
        </g>
    </g>
</svg>
